<svg width="960" height="320" viewBox="0 0 960 320" fill="none" xmlns="http://www.w3.org/2000/svg">
  <defs>
    <linearGradient id="bg" x1="40" y1="24" x2="240" y2="272" gradientUnits="userSpaceOnUse">
      <stop stop-color="#9FE7FF"/>
      <stop offset="0.55" stop-color="#71B6FF"/>
      <stop offset="1" stop-color="#F4A75D"/>
    </linearGradient>
    <linearGradient id="halo" x1="18" y1="20" x2="274" y2="296" gradientUnits="userSpaceOnUse">
      <stop stop-color="#16385C"/>
      <stop offset="1" stop-color="#08111E"/>
    </linearGradient>
  </defs>
  <rect width="960" height="320" rx="44" fill="#07111D"/>
  <circle cx="160" cy="160" r="128" fill="url(#halo)"/>
  <circle cx="160" cy="160" r="102" stroke="url(#bg)" stroke-width="20"/>
  <path d="M159 95V163L208 195" stroke="#F8FBFF" stroke-width="18" stroke-linecap="round" stroke-linejoin="round"/>
  <path d="M83 80C95 53 119 35 152 28" stroke="#F4A75D" stroke-width="14" stroke-linecap="round"/>
  <path d="M235 82C224 57 202 38 171 29" stroke="#9FE7FF" stroke-width="14" stroke-linecap="round"/>
  <circle cx="160" cy="160" r="16" fill="#F8FBFF"/>
  <path d="M101 223C120 244 143 255 170 255C197 255 220 245 239 223" stroke="#71B6FF" stroke-width="10" stroke-linecap="round" opacity="0.9"/>
  <g fill="#F8FBFF">
    <path d="M343.136 224V95.488H388.464C416.208 95.488 433.232 111.616 433.232 137.568C433.232 163.52 416.208 179.744 388.464 179.744H365.76V224H343.136ZM365.76 159.488H385.2C399.216 159.488 409.936 152.672 409.936 137.568C409.936 122.272 399.216 115.84 385.2 115.84H365.76V159.488Z"/>
    <path d="M523.358 224H501.118V214.528C495.55 221.92 487.294 226.688 476.478 226.688C456.654 226.688 443.118 212.8 443.118 193.264C443.118 173.536 456.654 159.552 476.478 159.552C487.294 159.552 495.55 164.416 501.118 171.52V162.048H523.358V224ZM483.198 207.92C493.822 207.92 501.502 200.336 501.502 193.168C501.502 186.096 493.822 178.32 483.198 178.32C472.478 178.32 465.262 185.904 465.262 193.168C465.262 200.432 472.478 207.92 483.198 207.92Z"/>
    <path d="M559.009 224H536.769V162.048H559.009V173.056C563.777 165.28 571.553 160.32 581.985 160.32C583.425 160.32 585.249 160.512 586.689 160.704V182.08C584.577 181.6 581.985 181.312 579.297 181.312C567.425 181.312 559.009 187.552 559.009 201.184V224Z"/>
    <path d="M622.396 226.688C605.564 226.688 591.548 217.6 591.548 199.808V180.992H578.396V162.048H591.548V144.16H613.788V162.048H631.196V180.992H613.788V196.64C613.788 204.128 617.692 207.248 624.988 207.248C627.964 207.248 630.94 206.768 633.34 205.904V223.6C630.076 225.328 626.076 226.688 622.396 226.688Z"/>
    <path d="M696.845 226.688C675.757 226.688 660.365 212.896 660.365 193.168C660.365 173.344 675.757 159.552 696.845 159.552C717.933 159.552 733.421 173.344 733.421 193.168C733.421 212.896 717.933 226.688 696.845 226.688ZM696.845 207.632C706.349 207.632 711.277 200.912 711.277 193.168C711.277 185.424 706.349 178.704 696.845 178.704C687.341 178.704 682.413 185.424 682.413 193.168C682.413 200.912 687.341 207.632 696.845 207.632Z"/>
    <path d="M768.112 224H745.872V162.048H768.112V171.04C773.488 164.224 782.48 159.552 793.584 159.552C809.136 159.552 820.432 170.08 820.432 187.776V224H798.192V191.872C798.192 182.56 793.52 178.608 786.8 178.608C776.944 178.608 768.112 186.384 768.112 198.736V224Z"/>
    <path d="M857.855 224H835.615V95.488H857.855V224Z"/>
    <path d="M900.915 224H878.675V162.048H900.915V224ZM889.875 154.368C882.387 154.368 876.147 148.224 876.147 140.64C876.147 133.152 882.387 127.008 889.875 127.008C897.459 127.008 903.603 133.152 903.603 140.64C903.603 148.224 897.459 154.368 889.875 154.368Z"/>
  </g>
</svg>
